<?xml version="1.0" encoding="UTF-8" standalone="no"?>
<svg width="100%" height="100%" viewBox="0 0 600 400" xmlns="http://www.w3.org/2000/svg">
  <!-- White background card -->
  <rect x="0" y="0" width="600" height="400" rx="10" fill="#ffffff"/>
  
  <!-- Sidebar -->
  <rect x="10" y="10" width="120" height="380" rx="5" fill="#f8f8f8"/>
  
  <!-- Sidebar menu items -->
  <rect x="20" y="110" width="100" height="25" rx="5" fill="#eeeeee"/>
  <rect x="25" y="117" width="15" height="15" rx="2" fill="#580080"/>
  <rect x="45" y="117" width="60" height="10" rx="2" fill="#888888"/>
  
  <rect x="20" y="145" width="100" height="25" rx="5" fill="#eeeeee"/>
  <rect x="25" y="152" width="15" height="15" rx="2" fill="#580080"/>
  <rect x="45" y="152" width="60" height="10" rx="2" fill="#888888"/>
  
  <rect x="20" y="180" width="100" height="25" rx="5" fill="#eeeeee"/>
  <rect x="25" y="187" width="15" height="15" rx="2" fill="#580080"/>
  <rect x="45" y="187" width="60" height="10" rx="2" fill="#888888"/>
  
  <rect x="20" y="215" width="100" height="25" rx="5" fill="#eeeeee"/>
  <rect x="25" y="222" width="15" height="15" rx="2" fill="#580080"/>
  <rect x="45" y="222" width="60" height="10" rx="2" fill="#888888"/>
  
  <rect x="20" y="250" width="100" height="25" rx="5" fill="#580080"/>
  <rect x="25" y="257" width="15" height="15" rx="2" fill="#ffffff"/>
  <rect x="45" y="257" width="60" height="10" rx="2" fill="#ffffff"/>
  
  <!-- Logo -->
  <rect x="30" y="30" width="80" height="30" rx="5" fill="#580080"/>
  <text x="70" y="50" font-family="Arial" font-size="12" fill="#ffffff" text-anchor="middle">LOGO</text>
  
  <!-- Main content -->
  <rect x="140" y="10" width="450" height="380" rx="5" fill="#ffffff"/>
  
  <!-- Header area -->
  <rect x="150" y="20" width="430" height="50" rx="5" fill="#f8f8f8"/>
  <text x="170" y="50" font-family="Arial" font-size="16" fill="#333333" font-weight="bold">Dashboard</text>
  
  <!-- Avatar -->
  <circle cx="540" cy="45" r="20" fill="#580080"/>
  <text x="540" y="50" font-family="Arial" font-size="12" fill="#ffffff" text-anchor="middle">LA</text>
  <text x="500" y="45" font-family="Arial" font-size="12" fill="#333333" text-anchor="end">Leslie Alexander</text>
  <text x="500" y="60" font-family="Arial" font-size="10" fill="#666666" text-anchor="end">Human Resources</text>
  
  <!-- Stats blocks -->
  <rect x="150" y="80" width="200" height="70" rx="5" fill="#f9f9f9"/>
  <rect x="160" y="90" width="180" height="20" rx="3" fill="#dddddd"/>
  <text x="170" y="105" font-family="Arial" font-size="12" fill="#333333">Total Employees</text>
  <text x="180" y="130" font-family="Arial" font-size="20" fill="#580080" font-weight="bold">400</text>
  
  <rect x="360" y="80" width="100" height="70" rx="5" fill="#f9f9f9"/>
  <rect x="370" y="90" width="80" height="20" rx="3" fill="#dddddd"/>
  <text x="380" y="105" font-family="Arial" font-size="12" fill="#333333">New Applicants</text>
  <text x="390" y="130" font-family="Arial" font-size="20" fill="#580080" font-weight="bold">28</text>
  
  <rect x="470" y="80" width="110" height="70" rx="5" fill="#f9f9f9"/>
  <rect x="480" y="90" width="90" height="20" rx="3" fill="#dddddd"/>
  <text x="490" y="105" font-family="Arial" font-size="12" fill="#333333">Hired Employees</text>
  <text x="500" y="130" font-family="Arial" font-size="20" fill="#580080" font-weight="bold">18</text>
  
  <!-- Chart section -->
  <rect x="150" y="160" width="230" height="220" rx="5" fill="#f9f9f9"/>
  <text x="170" y="185" font-family="Arial" font-size="14" fill="#333333" font-weight="bold">Project Overview</text>
  
  <!-- Employee Table -->
  <rect x="390" y="160" width="190" height="220" rx="5" fill="#f9f9f9"/>
  <text x="410" y="185" font-family="Arial" font-size="14" fill="#333333" font-weight="bold">Employees Summary</text>
  
  <!-- Table Header -->
  <rect x="400" y="195" width="170" height="25" rx="3" fill="#eeeeee"/>
  <text x="415" y="210" font-family="Arial" font-size="10" fill="#666666">Name</text>
  <text x="490" y="210" font-family="Arial" font-size="10" fill="#666666">Department</text>
  <text x="550" y="210" font-family="Arial" font-size="10" fill="#666666">Status</text>
  
  <!-- Table Rows -->
  <rect x="400" y="225" width="170" height="25" rx="0" fill="#ffffff"/>
  <text x="415" y="240" font-family="Arial" font-size="10" fill="#333333">David Steward</text>
  <text x="490" y="240" font-family="Arial" font-size="10" fill="#666666">HR</text>
  <rect x="540" y="230" width="45" height="15" rx="7" fill="#a3e4d7"/>
  <text x="562" y="240" font-family="Arial" font-size="9" fill="#333333" text-anchor="middle">Active</text>
  
  <rect x="400" y="255" width="170" height="25" rx="0" fill="#f9f9f9"/>
  <text x="415" y="270" font-family="Arial" font-size="10" fill="#333333">Samanatha Nguyen</text>
  <text x="490" y="270" font-family="Arial" font-size="10" fill="#666666">Developer</text>
  <rect x="540" y="260" width="45" height="15" rx="7" fill="#f9e79f"/>
  <text x="562" y="270" font-family="Arial" font-size="9" fill="#333333" text-anchor="middle">Pending</text>
  
  <rect x="400" y="285" width="170" height="25" rx="0" fill="#ffffff"/>
  <text x="415" y="300" font-family="Arial" font-size="10" fill="#333333">Jacob Jones</text>
  <text x="490" y="300" font-family="Arial" font-size="10" fill="#666666">Designer</text>
  <rect x="540" y="290" width="45" height="15" rx="7" fill="#a3e4d7"/>
  <text x="562" y="300" font-family="Arial" font-size="9" fill="#333333" text-anchor="middle">Active</text>
  
  <rect x="400" y="315" width="170" height="25" rx="0" fill="#f9f9f9"/>
  <text x="415" y="330" font-family="Arial" font-size="10" fill="#333333">Marvin McKinney</text>
  <text x="490" y="330" font-family="Arial" font-size="10" fill="#666666">Developer</text>
  <rect x="540" y="320" width="45" height="15" rx="7" fill="#a3e4d7"/>
  <text x="562" y="330" font-family="Arial" font-size="9" fill="#333333" text-anchor="middle">Active</text>
  
  <!-- Charts -->
  <rect x="165" y="195" width="200" height="100" rx="5" fill="#ffffff"/>
  
  <!-- Bar chart placeholder -->
  <rect x="175" y="220" width="10" height="60" rx="2" fill="#580080"/>
  <rect x="190" y="240" width="10" height="40" rx="2" fill="#580080"/>
  <rect x="205" y="230" width="10" height="50" rx="2" fill="#580080"/>
  <rect x="220" y="250" width="10" height="30" rx="2" fill="#580080"/>
  <rect x="235" y="245" width="10" height="35" rx="2" fill="#580080"/>
  <rect x="250" y="235" width="10" height="45" rx="2" fill="#580080"/>
  <rect x="265" y="215" width="10" height="65" rx="2" fill="#580080"/>
  <rect x="280" y="255" width="10" height="25" rx="2" fill="#580080"/>
  <rect x="295" y="240" width="10" height="40" rx="2" fill="#580080"/>
  <rect x="310" y="235" width="10" height="45" rx="2" fill="#580080"/>
  <rect x="325" y="225" width="10" height="55" rx="2" fill="#580080"/>
  <rect x="340" y="250" width="10" height="30" rx="2" fill="#580080"/>
  
  <!-- Pie chart placeholder -->
  <circle cx="250" cy="350" r="40" fill="none" stroke="#ededed" stroke-width="2"/>
  <path d="M 250 350 L 250 310 A 40 40 0 0 1 281 330 Z" fill="#580080"/>
  <path d="M 250 350 L 281 330 A 40 40 0 0 1 279 377 Z" fill="#a3e4d7"/>
  <path d="M 250 350 L 279 377 A 40 40 0 0 1 226 385 Z" fill="#f9e79f"/>
  <path d="M 250 350 L 226 385 A 40 40 0 0 1 213 349 Z" fill="#f5b7b1"/>
  <path d="M 250 350 L 213 349 A 40 40 0 0 1 250 310 Z" fill="#aed6f1"/>
  
  <!-- Task list -->
  <rect x="150" y="390" width="430" height="140" rx="5" fill="#f9f9f9"/>
  <text x="170" y="410" font-family="Arial" font-size="14" fill="#333333" font-weight="bold">Today's Task</text>
</svg> 