<?xml version="1.0" encoding="UTF-8"?>
<svg width="240" height="148" viewBox="0 0 240 148" fill="none" xmlns="http://www.w3.org/2000/svg">
  <!-- Dashboard preview image -->
  <rect width="240" height="148" rx="8" fill="white"/>
  
  <!-- Header -->
  <rect y="0" width="240" height="24" fill="#F6F7F9"/>
  <circle cx="12" cy="12" r="4" fill="#E0E4E8"/>
  <rect x="24" y="10" width="40" height="4" rx="2" fill="#E0E4E8"/>
  <rect x="180" y="10" width="20" height="4" rx="2" fill="#E0E4E8"/>
  <rect x="210" y="10" width="20" height="4" rx="2" fill="#E0E4E8"/>
  
  <!-- Sidebar -->
  <rect y="24" width="40" height="124" fill="#F6F7F9"/>
  <circle cx="20" cy="40" r="6" fill="#E0E4E8"/>
  <rect x="14" y="56" width="12" height="4" rx="2" fill="#E0E4E8"/>
  <rect x="14" y="70" width="12" height="4" rx="2" fill="#E0E4E8"/>
  <rect x="14" y="84" width="12" height="4" rx="2" fill="#E0E4E8"/>
  <rect x="14" y="98" width="12" height="4" rx="2" fill="#E0E4E8"/>
  <rect x="14" y="112" width="12" height="4" rx="2" fill="#E0E4E8"/>
  
  <!-- Main Content -->
  <!-- Charts -->
  <rect x="50" y="34" width="50" height="30" rx="4" fill="#F0F2F5"/>
  <path d="M60 54 L65 44 L70 48 L75 42 L80 46 L85 36" stroke="#580080" stroke-width="2"/>
  
  <rect x="110" y="34" width="50" height="30" rx="4" fill="#F0F2F5"/>
  <circle cx="135" cy="49" r="10" fill="#EAEDF2"/>
  <path d="M135 49 L135 39" stroke="#580080" stroke-width="2"/>
  <path d="M135 49 L143 52" stroke="#FF8A00" stroke-width="2"/>
  <path d="M135 49 L130 57" stroke="#34C759" stroke-width="2"/>
  
  <rect x="170" y="34" width="60" height="30" rx="4" fill="#F0F2F5"/>
  <rect x="175" y="52" width="5" height="8" fill="#580080"/>
  <rect x="183" y="46" width="5" height="14" fill="#580080"/>
  <rect x="191" y="49" width="5" height="11" fill="#580080"/>
  <rect x="199" y="42" width="5" height="18" fill="#580080"/>
  <rect x="207" y="38" width="5" height="22" fill="#580080"/>
  <rect x="215" y="44" width="5" height="16" fill="#580080"/>
  
  <!-- Table -->
  <rect x="50" y="74" width="180" height="64" rx="4" fill="#F0F2F5"/>
  <rect x="54" y="78" width="172" height="10" fill="#EAEDF2"/>
  <rect x="54" y="92" width="172" height="8" fill="white"/>
  <rect x="54" y="104" width="172" height="8" fill="white"/>
  <rect x="54" y="116" width="172" height="8" fill="white"/>
  <rect x="54" y="128" width="172" height="8" fill="white"/>
  
  <!-- Small colored indicators -->
  <circle cx="210" cy="96" r="2" fill="#34C759"/>
  <circle cx="210" cy="108" r="2" fill="#FF8A00"/>
  <circle cx="210" cy="120" r="2" fill="#580080"/>
  <circle cx="210" cy="132" r="2" fill="#34C759"/>
</svg> 